<?xml version="1.0" encoding="utf-8"?>
<!-- Generator: Adobe Illustrator 27.0.0, SVG Export Plug-In . SVG Version: 6.00 Build 0)  -->
<svg version="1.1" id="Layer_1" xmlns="http://www.w3.org/2000/svg" xmlns:xlink="http://www.w3.org/1999/xlink" x="0px" y="0px"
	 width="54px" height="55px" viewBox="0 0 54 55" style="enable-background:new 0 0 54 55;" xml:space="preserve">
<path d="M48.6,20.6H24.9c-0.8-3.2-3.7-5.4-6.9-5.4h-7.2V9.8C10.8,8.8,10,8,9,8H1.8C0.8,8,0,8.8,0,9.8v36c0,1,0.8,1.8,1.8,1.8H9
	c1,0,1.8-0.8,1.8-1.8v-5.4h32.4v5.4c0,1,0.8,1.8,1.8,1.8h7.2c1,0,1.8-0.8,1.8-1.8V26C54,23,51.6,20.6,48.6,20.6z M50.4,26v3.6H10.8
	v-5.4h37.8C49.6,24.2,50.4,25,50.4,26z M18,18.8c1.3,0,2.5,0.7,3.1,1.8H10.8v-1.8H18z M7.2,44H3.6V11.6h3.6V44z M10.8,36.8v-3.6
	h32.4v3.6H10.8z M50.4,44h-3.6V33.2h3.6V44z"/>
</svg>
