<?xml version="1.0" encoding="utf-8"?>
<!-- Generator: Adobe Illustrator 27.0.0, SVG Export Plug-In . SVG Version: 6.00 Build 0)  -->
<svg version="1.1" id="Layer_1" xmlns="http://www.w3.org/2000/svg" xmlns:xlink="http://www.w3.org/1999/xlink" x="0px" y="0px"
	 width="54px" height="50.3px" viewBox="0 0 54 50.3" style="enable-background:new 0 0 54 50.3;" xml:space="preserve">
<path d="M27,4.3c-14.9,0-27,8.7-27,19.5s12.1,19.5,27,19.5s27-8.7,27-19.5S41.9,4.3,27,4.3z M27,40.5c-12.8,0-23.1-7.5-23.1-16.7
	S14.2,7.1,27,7.1s23.1,7.5,23.1,16.7S39.8,40.5,27,40.5z M27,11.3c-9.6,0-17.4,5.6-17.4,12.5S17.4,36.4,27,36.4s17.4-5.6,17.4-12.5
	S36.6,11.3,27,11.3z M27,33.6c-7.5,0-13.5-4.4-13.5-9.8s6-9.7,13.5-9.7s13.5,4.4,13.5,9.7S34.5,33.6,27,33.6z M38.6,23.8
	c0,4.6-5.2,8.4-11.6,8.4c-1.1,0-1.9-0.6-1.9-1.4s0.9-1.4,1.9-1.4c4.3,0,7.7-2.5,7.7-5.6c0-0.8,0.9-1.4,1.9-1.4S38.6,23.1,38.6,23.8z
	 M25.5,18.4c-1.8,0.3-3.5,1-4.6,2.1c-0.6,0.6-1.8,0.7-2.7,0.3c-0.9-0.5-1-1.3-0.4-2c1.7-1.6,4.2-2.8,6.9-3.2
	c1.1-0.2,2.1,0.3,2.3,1.1C27.2,17.5,26.5,18.3,25.5,18.4L25.5,18.4L25.5,18.4z"/>
</svg>
