<?xml version="1.0" encoding="utf-8"?>
<!-- Generator: Adobe Illustrator 27.0.0, SVG Export Plug-In . SVG Version: 6.00 Build 0)  -->
<svg version="1.1" id="Layer_1" xmlns="http://www.w3.org/2000/svg" xmlns:xlink="http://www.w3.org/1999/xlink" x="0px" y="0px"
	 width="54px" height="52.8px" viewBox="0 0 54 52.8" style="enable-background:new 0 0 54 52.8;" xml:space="preserve">
<path d="M18.9,21.3c-1.5,0-2.7,1.2-2.7,2.8v5.6c0,1.5,1.2,2.8,2.7,2.8c1.5,0,2.7-1.2,2.7-2.8V24C21.6,22.5,20.4,21.3,18.9,21.3z
	 M51.3,24c1.5,0,2.7-1.2,2.7-2.8V10.1c0-1.5-1.2-2.8-2.7-2.8H2.7C1.2,7.3,0,8.6,0,10.1v11.1C0,22.8,1.2,24,2.7,24s2.7,1.2,2.7,2.8
	c0,1.5-1.2,2.8-2.7,2.8S0,30.9,0,32.4v11.1c0,1.5,1.2,2.8,2.7,2.8h48.6c1.5,0,2.7-1.2,2.7-2.8V32.4c0-1.5-1.2-2.8-2.7-2.8
	c-1.5,0-2.7-1.2-2.7-2.8C48.6,25.3,49.8,24,51.3,24z M48.6,19c-4.2,1.6-6.4,6.4-4.9,10.7c0.8,2.3,2.6,4.2,4.9,5v6.1h-27
	c0-1.5-1.2-2.8-2.7-2.8c-1.5,0-2.7,1.2-2.7,2.8H5.4v-6.1c4.2-1.6,6.4-6.4,4.9-10.7c-0.8-2.3-2.6-4.2-4.9-5v-6.1h10.8
	c0,1.5,1.2,2.8,2.7,2.8c1.5,0,2.7-1.2,2.7-2.8h27V19z"/>
</svg>
