<?xml version="1.0" encoding="utf-8"?>
<!-- Generator: Adobe Illustrator 27.0.0, SVG Export Plug-In . SVG Version: 6.00 Build 0)  -->
<svg version="1.1" id="Layer_1" xmlns="http://www.w3.org/2000/svg" xmlns:xlink="http://www.w3.org/1999/xlink" x="0px" y="0px"
	 width="54px" height="52.4px" viewBox="0 0 54 52.4" style="enable-background:new 0 0 54 52.4;" xml:space="preserve">
<style type="text/css">
	.st0{fill:none;}
</style>
<path class="st0" d="M3.9,10h34v34h-34V10z"/>
<path d="M31.2,12.3c4.6,0,8.3-1.6,8.3-3.6S35.7,5,31.2,5s-8.3,1.6-8.3,3.6S26.6,12.3,31.2,12.3z M15.8,18.4L5.2,41.8
	C4.6,42.9,6.6,44,9.2,44h0.3c2,0,3.6-0.6,4.1-1.4l6.7-13.1l8.7,3.6v9.1c0,1,1.9,1.8,4.2,1.8s4.2-0.8,4.2-1.8V32c0-1-0.9-1.9-2.6-2.6
	l-6.1-2.6l2.5-5.4c4.4,2.2,10.9,3.9,18.1,4.4c2.5,0.2,4.7-0.7,4.7-1.8c0-0.9-1.5-1.6-3.5-1.8c-6.3-0.5-11.5-2.1-14.3-4.2L32,15
	c-2.3-1.6-7-2.3-11-1.5L5.1,16.4C2,17,0,18.3,0,19.7V24c0,1,1.9,1.8,4.2,1.8S8.3,25,8.3,24v-4.4L15.8,18.4"/>
</svg>
