<?xml version="1.0" encoding="utf-8"?>
<!-- Generator: Adobe Illustrator 26.5.0, SVG Export Plug-In . SVG Version: 6.00 Build 0)  -->
<svg version="1.1" id="Layer_1" xmlns="http://www.w3.org/2000/svg" xmlns:xlink="http://www.w3.org/1999/xlink" x="0px" y="0px"
	 viewBox="0 0 92.53 89.44" style="enable-background:new 0 0 92.53 89.44;" xml:space="preserve">
<style type="text/css">
	.st0{fill:#010101;}
</style>
<g>
	<path class="st0" d="M90.28,21.47L66.82,37.64v45.61c0,1.7-0.88,3.15-2.65,4.37c-1.77,1.22-3.88,1.83-6.35,1.83
		c-2.46,0-4.58-0.61-6.35-1.83c-1.77-1.22-2.65-2.68-2.65-4.37V61.99h-5.14v21.25c0,1.7-0.88,3.15-2.65,4.37
		c-1.77,1.22-3.88,1.83-6.35,1.83c-2.46,0-4.58-0.61-6.35-1.83c-1.77-1.22-2.65-2.68-2.65-4.37V37.64L2.25,21.47
		C0.75,20.44,0,19.19,0,17.71s0.75-2.73,2.25-3.76s3.32-1.55,5.46-1.55s3.96,0.52,5.46,1.55l18.31,12.62h29.56l18.31-12.62
		c1.5-1.03,3.32-1.55,5.46-1.55s3.96,0.52,5.46,1.55s2.25,2.29,2.25,3.76S91.78,20.44,90.28,21.47z M64.25,12.4
		c0,3.43-1.75,6.36-5.26,8.77c-3.51,2.42-7.75,3.63-12.73,3.63s-9.22-1.21-12.73-3.63c-3.51-2.42-5.26-5.34-5.26-8.77
		s1.75-6.36,5.26-8.77S41.28,0,46.26,0s9.22,1.21,12.73,3.63C62.5,6.04,64.25,8.97,64.25,12.4z"/>
</g>
</svg>
