<?xml version="1.0" encoding="utf-8"?>
<!-- Generator: Adobe Illustrator 26.5.0, SVG Export Plug-In . SVG Version: 6.00 Build 0)  -->
<svg version="1.1" id="Layer_1" xmlns="http://www.w3.org/2000/svg" xmlns:xlink="http://www.w3.org/1999/xlink" x="0px" y="0px"
	 viewBox="0 0 92.53 89.44" style="enable-background:new 0 0 92.53 89.44;" xml:space="preserve">
<style type="text/css">
	.st0{fill:#010101;}
</style>
<g>
	<path class="st0" d="M77.35,44.78c0-1.05-0.36-1.92-1.08-2.62l-5.48-5.3c-0.72-0.7-1.63-1.05-2.71-1.05
		c-1.08,0-1.99,0.35-2.71,1.05L53.97,47.87V18.63c0-1.01-0.38-1.88-1.14-2.62c-0.76-0.74-1.67-1.11-2.71-1.11h-7.71
		c-1.04,0-1.95,0.37-2.71,1.11c-0.76,0.74-1.14,1.61-1.14,2.62v29.23L27.17,36.86c-0.76-0.74-1.67-1.11-2.71-1.11
		s-1.95,0.37-2.71,1.11l-5.48,5.3c-0.72,0.7-1.08,1.57-1.08,2.62s0.36,1.92,1.08,2.62l21.81,21.08l5.48,5.3
		c0.72,0.7,1.63,1.05,2.71,1.05c1.08,0,1.99-0.35,2.71-1.05l5.48-5.3L76.26,47.4C76.98,46.7,77.35,45.83,77.35,44.78z M92.53,44.72
		c0,8.11-2.07,15.6-6.2,22.45c-4.14,6.85-9.75,12.28-16.84,16.28c-7.09,4-14.83,6-23.22,6s-16.13-2-23.22-6
		c-7.09-4-12.7-9.42-16.84-16.28C2.07,60.32,0,52.83,0,44.72s2.07-15.6,6.2-22.45S15.95,10,23.04,6s14.83-6,23.22-6S62.4,2,69.48,6
		s12.7,9.42,16.84,16.28C90.46,29.12,92.53,36.61,92.53,44.72z"/>
</g>
</svg>
