<?xml version="1.0" encoding="utf-8"?>
<!-- Generator: Adobe Illustrator 26.5.0, SVG Export Plug-In . SVG Version: 6.00 Build 0)  -->
<svg version="1.1" id="Layer_1" xmlns="http://www.w3.org/2000/svg" xmlns:xlink="http://www.w3.org/1999/xlink" x="0px" y="0px"
	 viewBox="0 0 92.53 89.44" style="enable-background:new 0 0 92.53 89.44;" xml:space="preserve">
<style type="text/css">
	.st0{fill:#010101;}
</style>
<g>
	<path class="st0" d="M92.53,59.15c0,5.09-3.29,9.47-9.87,13.15c-6.58,3.68-15.12,5.95-25.63,6.81v8.73c0,0.47-0.3,0.85-0.89,1.15
		s-1.36,0.45-2.28,0.45H40.46c-0.86,0-1.6-0.16-2.23-0.47c-0.63-0.32-0.94-0.69-0.94-1.12v-8.73c-4.36-0.3-8.58-0.82-12.64-1.55
		s-7.42-1.47-10.07-2.22c-2.64-0.75-5.09-1.55-7.34-2.4c-2.25-0.85-3.78-1.47-4.61-1.87s-1.4-0.7-1.74-0.9
		c-1.12-0.7-1.19-1.38-0.2-2.05l10.21-6.74c0.46-0.33,1.22-0.53,2.28-0.6c0.99-0.07,1.79,0.08,2.38,0.45l0.2,0.1
		c7.47,3.29,15.5,5.37,24.1,6.24c2.45,0.27,4.89,0.4,7.34,0.4c5.36,0,10.07-0.72,14.13-2.15c4.07-1.43,6.1-3.46,6.1-6.09
		c0-0.93-0.5-1.81-1.49-2.65c-0.99-0.83-2.1-1.53-3.32-2.1c-1.22-0.57-3.16-1.19-5.8-1.87c-2.64-0.68-4.83-1.21-6.55-1.6
		c-1.72-0.38-4.36-0.92-7.93-1.62c-2.58-0.53-4.61-0.95-6.1-1.25c-1.49-0.3-3.52-0.74-6.1-1.32s-4.64-1.1-6.2-1.55
		c-1.55-0.45-3.42-1.04-5.6-1.77s-3.95-1.44-5.31-2.12c-1.36-0.68-2.79-1.5-4.31-2.45c-1.52-0.95-2.69-1.91-3.52-2.89
		c-0.83-0.98-1.52-2.09-2.08-3.32s-0.84-2.53-0.84-3.89c0-4.59,3.24-8.62,9.72-12.08s14.91-5.69,25.29-6.69V1.6
		c0-0.43,0.31-0.81,0.94-1.12C38.86,0.16,39.6,0,40.46,0h13.39c0.93,0,1.69,0.15,2.28,0.45s0.89,0.68,0.89,1.15v8.78
		c3.77,0.2,7.42,0.58,10.96,1.15c3.54,0.57,6.41,1.12,8.63,1.67c2.21,0.55,4.31,1.17,6.3,1.87c1.98,0.7,3.27,1.18,3.87,1.45
		s1.09,0.5,1.49,0.7c1.12,0.6,1.29,1.23,0.5,1.9l-8.03,7.29c-0.53,0.5-1.29,0.77-2.28,0.8c-0.93,0.1-1.82-0.02-2.68-0.35
		c-0.2-0.1-0.68-0.3-1.44-0.6c-0.76-0.3-2.05-0.74-3.87-1.32c-1.82-0.58-3.75-1.11-5.8-1.6c-2.05-0.48-4.51-0.92-7.39-1.3
		c-2.88-0.38-5.7-0.57-8.48-0.57c-6.28,0-11.4,0.72-15.37,2.15c-3.97,1.43-5.95,3.28-5.95,5.54c0,0.87,0.28,1.66,0.84,2.4
		c0.56,0.73,1.54,1.42,2.93,2.07c1.39,0.65,2.69,1.2,3.92,1.65c1.22,0.45,3.07,0.96,5.55,1.55s4.48,1.03,6,1.35
		c1.52,0.32,3.83,0.77,6.94,1.37c3.5,0.67,6.18,1.19,8.03,1.57c1.85,0.38,4.36,0.96,7.54,1.75c3.17,0.78,5.67,1.49,7.49,2.12
		c1.82,0.63,3.87,1.46,6.15,2.5c2.28,1.03,4.03,2.09,5.26,3.17c1.22,1.08,2.26,2.35,3.12,3.82C92.1,55.92,92.53,57.48,92.53,59.15z"
		/>
</g>
</svg>
