<?xml version="1.0" encoding="utf-8"?>
<!-- Generator: Adobe Illustrator 26.5.0, SVG Export Plug-In . SVG Version: 6.00 Build 0)  -->
<svg version="1.1" id="Layer_1" xmlns="http://www.w3.org/2000/svg" xmlns:xlink="http://www.w3.org/1999/xlink" x="0px" y="0px"
	 viewBox="0 0 22 22" style="enable-background:new 0 0 22 22;" xml:space="preserve">
<style type="text/css">
	.st0{fill:none;stroke:#020202;stroke-width:1.4917;stroke-miterlimit:10;}
</style>
<g>
	<rect y="2.28" class="st0" width="22" height="19.72"/>
	<line class="st0" x1="0" y1="6.85" x2="22" y2="6.85"/>
	<line class="st0" x1="8.07" y1="9.86" x2="9.53" y2="9.86"/>
	<line class="st0" x1="12.47" y1="9.86" x2="13.93" y2="9.86"/>
	<line class="st0" x1="16.87" y1="9.86" x2="18.33" y2="9.86"/>
	<line class="st0" x1="16.87" y1="12.9" x2="18.33" y2="12.9"/>
	<line class="st0" x1="12.47" y1="12.9" x2="13.93" y2="12.9"/>
	<line class="st0" x1="8.07" y1="12.9" x2="9.53" y2="12.9"/>
	<line class="st0" x1="3.67" y1="12.9" x2="5.13" y2="12.9"/>
	<line class="st0" x1="3.67" y1="15.93" x2="5.13" y2="15.93"/>
	<line class="st0" x1="8.07" y1="15.93" x2="9.53" y2="15.93"/>
	<line class="st0" x1="12.47" y1="15.93" x2="13.93" y2="15.93"/>
	<line class="st0" x1="16.87" y1="15.93" x2="18.33" y2="15.93"/>
	<line class="st0" x1="3.67" y1="18.96" x2="5.13" y2="18.96"/>
	<line class="st0" x1="8.07" y1="18.96" x2="9.53" y2="18.96"/>
	<line class="st0" x1="12.47" y1="18.96" x2="13.93" y2="18.96"/>
	<line class="st0" x1="4.4" y1="0" x2="4.4" y2="4.55"/>
	<line class="st0" x1="17.6" y1="0" x2="17.6" y2="4.55"/>
</g>
</svg>
